<svg width="34" height="34" viewBox="0 0 34 34" fill="none" xmlns="http://www.w3.org/2000/svg">
<path d="M19.4508 29.75C19.2018 30.1793 18.8443 30.5357 18.4142 30.7835C17.984 31.0312 17.4964 31.1616 17 31.1616C16.5036 31.1616 16.016 31.0312 15.5858 30.7835C15.1557 30.5357 14.7982 30.1793 14.5492 29.75M25.5 11.3333C25.5 9.07897 24.6045 6.91696 23.0104 5.32291C21.4163 3.72885 19.2543 2.83331 17 2.83331C14.7457 2.83331 12.5837 3.72885 10.9896 5.32291C9.39553 6.91696 8.5 9.07897 8.5 11.3333C8.5 21.25 4.25 24.0833 4.25 24.0833H29.75C29.75 24.0833 25.5 21.25 25.5 11.3333Z" stroke="white" stroke-opacity="0.2" stroke-width="4" stroke-linecap="round" stroke-linejoin="round"/>
</svg>
