<svg width="31" height="31" viewBox="0 0 31 31" fill="none" xmlns="http://www.w3.org/2000/svg">
<g clip-path="url(#clip0_2_90)">
<path d="M1.29163 1.29169H6.45829L9.91996 18.5871C10.0381 19.1818 10.3616 19.716 10.8339 20.0962C11.3062 20.4763 11.8971 20.6783 12.5033 20.6667H25.0583C25.6645 20.6783 26.2554 20.4763 26.7277 20.0962C27.2 19.716 27.5235 19.1818 27.6416 18.5871L29.7083 7.75002H7.74996M12.9166 27.125C12.9166 27.8384 12.3383 28.4167 11.625 28.4167C10.9116 28.4167 10.3333 27.8384 10.3333 27.125C10.3333 26.4117 10.9116 25.8334 11.625 25.8334C12.3383 25.8334 12.9166 26.4117 12.9166 27.125ZM27.125 27.125C27.125 27.8384 26.5467 28.4167 25.8333 28.4167C25.1199 28.4167 24.5416 27.8384 24.5416 27.125C24.5416 26.4117 25.1199 25.8334 25.8333 25.8334C26.5467 25.8334 27.125 26.4117 27.125 27.125Z" stroke="white" stroke-opacity="0.3" stroke-width="4" stroke-linecap="round" stroke-linejoin="round"/>
</g>
<defs>
<clipPath id="clip0_2_90">
<rect width="31" height="31" fill="white"/>
</clipPath>
</defs>
</svg>
